<?xml version="1.0" encoding="UTF-8" standalone="no"?>
<!DOCTYPE svg PUBLIC "-//W3C//DTD SVG 1.1//EN"
 "http://www.w3.org/Graphics/SVG/1.1/DTD/svg11.dtd">
<!-- Generated by graphviz version 2.40.1 (20161225.0304)
 -->
<!-- Title: %3 Pages: 1 -->
<svg width="776pt" height="530pt"
 viewBox="0.00 0.00 775.94 530.00" xmlns="http://www.w3.org/2000/svg" xmlns:xlink="http://www.w3.org/1999/xlink">
<g id="graph0" class="graph" transform="scale(1 1) rotate(0) translate(4 526)">
<title>%3</title>
<polygon fill="#ffffff" stroke="transparent" points="-4,4 -4,-526 771.9446,-526 771.9446,4 -4,4"/>
<!-- Joiner -->
<g id="node1" class="node">
<title>Joiner</title>
<ellipse fill="#ffa54f" stroke="#000000" cx="508.3645" cy="-450" rx="32.4942" ry="18"/>
<text text-anchor="middle" x="508.3645" y="-446.3" font-family="Times,serif" font-size="14.00" fill="#000000">Joiner</text>
</g>
<!-- Hyphen -->
<g id="node2" class="node">
<title>Hyphen</title>
<ellipse fill="#ffa54f" stroke="#000000" cx="691.9014" cy="-504" rx="38.1938" ry="18"/>
<text text-anchor="middle" x="691.9014" y="-500.3" font-family="Times,serif" font-size="14.00" fill="#000000">Hyphen</text>
</g>
<!-- Joiner&#45;&gt;Hyphen -->
<g id="edge1" class="edge">
<title>Joiner&#45;&gt;Hyphen</title>
<path fill="none" stroke="#000000" d="M537.4464,-458.5565C567.6217,-467.4346 615.1184,-481.409 649.4787,-491.5184"/>
<polygon fill="#000000" stroke="#000000" points="648.6594,-494.9257 659.2407,-494.3906 650.6352,-488.2103 648.6594,-494.9257"/>
</g>
<!-- MultiverbNewline -->
<g id="node3" class="node">
<title>MultiverbNewline</title>
<ellipse fill="#ffa54f" stroke="#000000" cx="691.9014" cy="-396" rx="76.0865" ry="18"/>
<text text-anchor="middle" x="691.9014" y="-392.3" font-family="Times,serif" font-size="14.00" fill="#000000">MultiverbNewline</text>
</g>
<!-- Joiner&#45;&gt;MultiverbNewline -->
<g id="edge2" class="edge">
<title>Joiner&#45;&gt;MultiverbNewline</title>
<path fill="none" stroke="#000000" d="M537.4464,-441.4435C563.37,-433.8163 602.0778,-422.4278 634.2576,-412.9599"/>
<polygon fill="#000000" stroke="#000000" points="635.408,-416.2698 644.0134,-410.0895 633.4321,-409.5545 635.408,-416.2698"/>
</g>
<!-- UniverbNewline -->
<g id="node4" class="node">
<title>UniverbNewline</title>
<ellipse fill="#ffa54f" stroke="#000000" cx="691.9014" cy="-450" rx="69.5877" ry="18"/>
<text text-anchor="middle" x="691.9014" y="-446.3" font-family="Times,serif" font-size="14.00" fill="#000000">UniverbNewline</text>
</g>
<!-- Joiner&#45;&gt;UniverbNewline -->
<g id="edge3" class="edge">
<title>Joiner&#45;&gt;UniverbNewline</title>
<path fill="none" stroke="#000000" d="M541.1772,-450C560.933,-450 587.0104,-450 611.9114,-450"/>
<polygon fill="#000000" stroke="#000000" points="612.1173,-453.5001 622.1172,-450 612.1172,-446.5001 612.1173,-453.5001"/>
</g>
<!-- Bracket -->
<g id="node5" class="node">
<title>Bracket</title>
<ellipse fill="#b0e2ff" stroke="#000000" cx="336.5265" cy="-184" rx="38.1938" ry="18"/>
<text text-anchor="middle" x="336.5265" y="-180.3" font-family="Times,serif" font-size="14.00" fill="#000000">Bracket</text>
</g>
<!-- EditorCompleted -->
<g id="node6" class="node">
<title>EditorCompleted</title>
<ellipse fill="#b0e2ff" stroke="#000000" cx="508.3645" cy="-18" rx="71.4873" ry="18"/>
<text text-anchor="middle" x="508.3645" y="-14.3" font-family="Times,serif" font-size="14.00" fill="#000000">EditorCompleted</text>
</g>
<!-- Bracket&#45;&gt;EditorCompleted -->
<g id="edge4" class="edge">
<title>Bracket&#45;&gt;EditorCompleted</title>
<path fill="none" stroke="#000000" d="M370.9654,-175.7135C381.7661,-171.6337 392.9277,-165.66 400.8708,-157 436.2133,-118.4677 400.8366,-82.8862 436.8708,-45 440.2369,-41.4609 444.1132,-38.3814 448.2835,-35.7024"/>
<polygon fill="#000000" stroke="#000000" points="450.1513,-38.6685 457.187,-30.747 446.747,-32.552 450.1513,-38.6685"/>
</g>
<!-- FromEdition -->
<g id="node7" class="node">
<title>FromEdition</title>
<ellipse fill="#b0e2ff" stroke="#000000" cx="508.3645" cy="-234" rx="55.7903" ry="18"/>
<text text-anchor="middle" x="508.3645" y="-230.3" font-family="Times,serif" font-size="14.00" fill="#000000">FromEdition</text>
</g>
<!-- Bracket&#45;&gt;FromEdition -->
<g id="edge5" class="edge">
<title>Bracket&#45;&gt;FromEdition</title>
<path fill="none" stroke="#000000" d="M369.2524,-193.5223C393.9908,-200.7205 428.4289,-210.741 456.8504,-219.0109"/>
<polygon fill="#000000" stroke="#000000" points="456.0471,-222.4222 466.6268,-221.8555 458.0029,-215.701 456.0471,-222.4222"/>
</g>
<!-- Parenthesis -->
<g id="node8" class="node">
<title>Parenthesis</title>
<ellipse fill="#b0e2ff" stroke="#000000" cx="508.3645" cy="-180" rx="50.8918" ry="18"/>
<text text-anchor="middle" x="508.3645" y="-176.3" font-family="Times,serif" font-size="14.00" fill="#000000">Parenthesis</text>
</g>
<!-- Bracket&#45;&gt;Parenthesis -->
<g id="edge6" class="edge">
<title>Bracket&#45;&gt;Parenthesis</title>
<path fill="none" stroke="#000000" d="M375.0903,-183.1023C396.3898,-182.6065 423.3357,-181.9793 447.4159,-181.4187"/>
<polygon fill="#000000" stroke="#000000" points="447.6199,-184.915 457.5357,-181.1832 447.4569,-177.9169 447.6199,-184.915"/>
</g>
<!-- Recognizable -->
<g id="node9" class="node">
<title>Recognizable</title>
<ellipse fill="#b0e2ff" stroke="#000000" cx="508.3645" cy="-126" rx="58.4896" ry="18"/>
<text text-anchor="middle" x="508.3645" y="-122.3" font-family="Times,serif" font-size="14.00" fill="#000000">Recognizable</text>
</g>
<!-- Bracket&#45;&gt;Recognizable -->
<g id="edge7" class="edge">
<title>Bracket&#45;&gt;Recognizable</title>
<path fill="none" stroke="#000000" d="M368.0443,-173.3619C393.55,-164.753 429.9214,-152.4767 459.2431,-142.5798"/>
<polygon fill="#000000" stroke="#000000" points="460.5353,-145.8377 468.8908,-139.3234 458.2967,-139.2053 460.5353,-145.8377"/>
</g>
<!-- Strikethrough -->
<g id="node10" class="node">
<title>Strikethrough</title>
<ellipse fill="#b0e2ff" stroke="#000000" cx="508.3645" cy="-72" rx="59.2899" ry="18"/>
<text text-anchor="middle" x="508.3645" y="-68.3" font-family="Times,serif" font-size="14.00" fill="#000000">Strikethrough</text>
</g>
<!-- Bracket&#45;&gt;Strikethrough -->
<g id="edge8" class="edge">
<title>Bracket&#45;&gt;Strikethrough</title>
<path fill="none" stroke="#000000" d="M369.4807,-174.6462C380.2926,-170.468 391.8388,-164.7054 400.8708,-157 423.9522,-137.3088 413.4368,-118.2702 436.8708,-99 442.1036,-94.697 448.0934,-91.0363 454.3298,-87.933"/>
<polygon fill="#000000" stroke="#000000" points="455.8969,-91.066 463.5842,-83.7751 453.0281,-84.6809 455.8969,-91.066"/>
</g>
<!-- Char -->
<g id="node11" class="node">
<title>Char</title>
<ellipse fill="#b0e2ff" stroke="#000000" cx="51.9954" cy="-242" rx="27.8951" ry="18"/>
<text text-anchor="middle" x="51.9954" y="-238.3" font-family="Times,serif" font-size="14.00" fill="#000000">Char</text>
</g>
<!-- MetaChar -->
<g id="node12" class="node">
<title>MetaChar</title>
<ellipse fill="#b0e2ff" stroke="#000000" cx="188.0865" cy="-242" rx="46.2923" ry="18"/>
<text text-anchor="middle" x="188.0865" y="-238.3" font-family="Times,serif" font-size="14.00" fill="#000000">MetaChar</text>
</g>
<!-- Char&#45;&gt;MetaChar -->
<g id="edge9" class="edge">
<title>Char&#45;&gt;MetaChar</title>
<path fill="none" stroke="#000000" d="M80.1936,-242C95.0323,-242 113.7745,-242 131.4578,-242"/>
<polygon fill="#000000" stroke="#000000" points="131.7096,-245.5001 141.7095,-242 131.7095,-238.5001 131.7096,-245.5001"/>
</g>
<!-- Punct -->
<g id="node13" class="node">
<title>Punct</title>
<ellipse fill="#b0e2ff" stroke="#000000" cx="188.0865" cy="-188" rx="30.5947" ry="18"/>
<text text-anchor="middle" x="188.0865" y="-184.3" font-family="Times,serif" font-size="14.00" fill="#000000">Punct</text>
</g>
<!-- Char&#45;&gt;Punct -->
<g id="edge10" class="edge">
<title>Char&#45;&gt;Punct</title>
<path fill="none" stroke="#000000" d="M76.0125,-232.4702C97.3396,-224.0077 128.7793,-211.5327 152.9357,-201.9476"/>
<polygon fill="#000000" stroke="#000000" points="154.456,-205.1099 162.4601,-198.1684 151.8742,-198.6034 154.456,-205.1099"/>
</g>
<!-- TextChar -->
<g id="node14" class="node">
<title>TextChar</title>
<ellipse fill="#b0e2ff" stroke="#000000" cx="188.0865" cy="-431" rx="44.393" ry="18"/>
<text text-anchor="middle" x="188.0865" y="-427.3" font-family="Times,serif" font-size="14.00" fill="#000000">TextChar</text>
</g>
<!-- Char&#45;&gt;TextChar -->
<g id="edge11" class="edge">
<title>Char&#45;&gt;TextChar</title>
<path fill="none" stroke="#000000" d="M63.8345,-258.4419C87.5824,-291.4224 141.1837,-365.8625 169.5976,-405.3231"/>
<polygon fill="#000000" stroke="#000000" points="166.9048,-407.5731 175.5885,-413.643 172.5854,-403.4827 166.9048,-407.5731"/>
</g>
<!-- MetaChar&#45;&gt;Bracket -->
<g id="edge12" class="edge">
<title>MetaChar&#45;&gt;Bracket</title>
<path fill="none" stroke="#000000" d="M221.0302,-229.1279C243.5513,-220.3282 273.507,-208.6236 297.2671,-199.3398"/>
<polygon fill="#000000" stroke="#000000" points="298.659,-202.5537 306.6995,-195.6543 296.1114,-196.0338 298.659,-202.5537"/>
</g>
<!-- ForeignMarker -->
<g id="node15" class="node">
<title>ForeignMarker</title>
<ellipse fill="#b0e2ff" stroke="#000000" cx="336.5265" cy="-130" rx="64.189" ry="18"/>
<text text-anchor="middle" x="336.5265" y="-126.3" font-family="Times,serif" font-size="14.00" fill="#000000">ForeignMarker</text>
</g>
<!-- MetaChar&#45;&gt;ForeignMarker -->
<g id="edge13" class="edge">
<title>MetaChar&#45;&gt;ForeignMarker</title>
<path fill="none" stroke="#000000" d="M218.1842,-228.1888C224.5495,-224.4554 230.9244,-220.0317 236.1822,-215 258.1019,-194.0233 249.1008,-176.6912 272.1822,-157 276.0574,-153.694 280.3954,-150.7456 284.9397,-148.1266"/>
<polygon fill="#000000" stroke="#000000" points="286.6057,-151.2053 293.8653,-143.4885 283.3779,-144.9938 286.6057,-151.2053"/>
</g>
<!-- Lacuna -->
<g id="node16" class="node">
<title>Lacuna</title>
<ellipse fill="#b0e2ff" stroke="#000000" cx="336.5265" cy="-76" rx="36.2938" ry="18"/>
<text text-anchor="middle" x="336.5265" y="-72.3" font-family="Times,serif" font-size="14.00" fill="#000000">Lacuna</text>
</g>
<!-- MetaChar&#45;&gt;Lacuna -->
<g id="edge14" class="edge">
<title>MetaChar&#45;&gt;Lacuna</title>
<path fill="none" stroke="#000000" d="M219.6505,-228.7837C225.788,-225.0578 231.6984,-220.487 236.1822,-215 269.2674,-174.513 236.8398,-141.5323 272.1822,-103 278.1267,-96.519 285.8739,-91.5425 293.9234,-87.7384"/>
<polygon fill="#000000" stroke="#000000" points="295.5304,-90.8608 303.4217,-83.7913 292.8442,-84.3967 295.5304,-90.8608"/>
</g>
<!-- ParticleLink -->
<g id="node17" class="node">
<title>ParticleLink</title>
<ellipse fill="#b0e2ff" stroke="#000000" cx="336.5265" cy="-350" rx="53.8905" ry="18"/>
<text text-anchor="middle" x="336.5265" y="-346.3" font-family="Times,serif" font-size="14.00" fill="#000000">ParticleLink</text>
</g>
<!-- MetaChar&#45;&gt;ParticleLink -->
<g id="edge15" class="edge">
<title>MetaChar&#45;&gt;ParticleLink</title>
<path fill="none" stroke="#000000" d="M202.6789,-259.4416C218.3599,-277.3074 244.7493,-304.9492 272.1822,-323 277.5618,-326.5397 283.4815,-329.7735 289.4851,-332.6759"/>
<polygon fill="#000000" stroke="#000000" points="288.3704,-336.0136 298.9228,-336.9602 291.2639,-329.6396 288.3704,-336.0136"/>
</g>
<!-- SentBound -->
<g id="node18" class="node">
<title>SentBound</title>
<ellipse fill="#b0e2ff" stroke="#000000" cx="336.5265" cy="-296" rx="50.0912" ry="18"/>
<text text-anchor="middle" x="336.5265" y="-292.3" font-family="Times,serif" font-size="14.00" fill="#000000">SentBound</text>
</g>
<!-- MetaChar&#45;&gt;SentBound -->
<g id="edge16" class="edge">
<title>MetaChar&#45;&gt;SentBound</title>
<path fill="none" stroke="#000000" d="M222.1416,-254.3887C242.7951,-261.9021 269.3865,-271.5756 291.732,-279.7045"/>
<polygon fill="#000000" stroke="#000000" points="290.7462,-283.0702 301.3402,-283.1998 293.1393,-276.492 290.7462,-283.0702"/>
</g>
<!-- TokenBound -->
<g id="node19" class="node">
<title>TokenBound</title>
<ellipse fill="#b0e2ff" stroke="#000000" cx="336.5265" cy="-242" rx="56.59" ry="18"/>
<text text-anchor="middle" x="336.5265" y="-238.3" font-family="Times,serif" font-size="14.00" fill="#000000">TokenBound</text>
</g>
<!-- MetaChar&#45;&gt;TokenBound -->
<g id="edge17" class="edge">
<title>MetaChar&#45;&gt;TokenBound</title>
<path fill="none" stroke="#000000" d="M234.2402,-242C245.5435,-242 257.8653,-242 269.9166,-242"/>
<polygon fill="#000000" stroke="#000000" points="269.9479,-245.5001 279.9479,-242 269.9478,-238.5001 269.9479,-245.5001"/>
</g>
<!-- TextChar&#45;&gt;Hyphen -->
<g id="edge23" class="edge">
<title>TextChar&#45;&gt;Hyphen</title>
<path fill="none" stroke="#000000" d="M215.1705,-445.3811C222.1267,-449.2972 229.5234,-453.6609 236.1822,-458 252.9386,-468.919 253.3565,-478.2479 272.1822,-485 400.6448,-531.0744 565.5259,-519.9501 644.9734,-510.6245"/>
<polygon fill="#000000" stroke="#000000" points="645.6437,-514.0688 655.1468,-509.3846 644.7967,-507.1202 645.6437,-514.0688"/>
</g>
<!-- IllegibleChar -->
<g id="node23" class="node">
<title>IllegibleChar</title>
<ellipse fill="#b0e2ff" stroke="#000000" cx="336.5265" cy="-458" rx="57.3905" ry="18"/>
<text text-anchor="middle" x="336.5265" y="-454.3" font-family="Times,serif" font-size="14.00" fill="#000000">IllegibleChar</text>
</g>
<!-- TextChar&#45;&gt;IllegibleChar -->
<g id="edge21" class="edge">
<title>TextChar&#45;&gt;IllegibleChar</title>
<path fill="none" stroke="#000000" d="M228.6484,-438.3779C243.5055,-441.0803 260.6455,-444.1979 276.8272,-447.1412"/>
<polygon fill="#000000" stroke="#000000" points="276.2848,-450.5999 286.7498,-448.946 277.5376,-443.7129 276.2848,-450.5999"/>
</g>
<!-- Majuscule -->
<g id="node24" class="node">
<title>Majuscule</title>
<ellipse fill="#b0e2ff" stroke="#000000" cx="336.5265" cy="-404" rx="48.1917" ry="18"/>
<text text-anchor="middle" x="336.5265" y="-400.3" font-family="Times,serif" font-size="14.00" fill="#000000">Majuscule</text>
</g>
<!-- TextChar&#45;&gt;Majuscule -->
<g id="edge22" class="edge">
<title>TextChar&#45;&gt;Majuscule</title>
<path fill="none" stroke="#000000" d="M228.6484,-423.6221C245.446,-420.5668 265.1617,-416.9807 283.1113,-413.7158"/>
<polygon fill="#000000" stroke="#000000" points="283.9428,-417.122 293.155,-411.8889 282.6901,-410.235 283.9428,-417.122"/>
</g>
<!-- QuotationMark -->
<g id="node22" class="node">
<title>QuotationMark</title>
<ellipse fill="#b0e2ff" stroke="#000000" cx="508.3645" cy="-396" rx="65.7887" ry="18"/>
<text text-anchor="middle" x="508.3645" y="-392.3" font-family="Times,serif" font-size="14.00" fill="#000000">QuotationMark</text>
</g>
<!-- SentBound&#45;&gt;QuotationMark -->
<g id="edge20" class="edge">
<title>SentBound&#45;&gt;QuotationMark</title>
<path fill="none" stroke="#000000" d="M374.0157,-307.9667C383.305,-311.9154 392.8785,-316.8986 400.8708,-323 421.5061,-338.7531 415.9538,-353.623 436.8708,-369 441.9218,-372.7132 447.5438,-375.9755 453.3539,-378.8268"/>
<polygon fill="#000000" stroke="#000000" points="452.028,-382.0681 462.584,-382.975 454.8975,-375.6833 452.028,-382.0681"/>
</g>
<!-- Multiverbation -->
<g id="node20" class="node">
<title>Multiverbation</title>
<ellipse fill="#b0e2ff" stroke="#000000" cx="508.3645" cy="-288" rx="63.8893" ry="18"/>
<text text-anchor="middle" x="508.3645" y="-284.3" font-family="Times,serif" font-size="14.00" fill="#000000">Multiverbation</text>
</g>
<!-- TokenBound&#45;&gt;Multiverbation -->
<g id="edge24" class="edge">
<title>TokenBound&#45;&gt;Multiverbation</title>
<path fill="none" stroke="#000000" d="M379.8885,-253.6077C401.8117,-259.4765 428.6805,-266.6691 452.1689,-272.9568"/>
<polygon fill="#000000" stroke="#000000" points="451.4392,-276.3846 462.0042,-275.5896 453.2494,-269.6227 451.4392,-276.3846"/>
</g>
<!-- Univerbation -->
<g id="node25" class="node">
<title>Univerbation</title>
<ellipse fill="#b0e2ff" stroke="#000000" cx="508.3645" cy="-342" rx="57.3905" ry="18"/>
<text text-anchor="middle" x="508.3645" y="-338.3" font-family="Times,serif" font-size="14.00" fill="#000000">Univerbation</text>
</g>
<!-- TokenBound&#45;&gt;Univerbation -->
<g id="edge25" class="edge">
<title>TokenBound&#45;&gt;Univerbation</title>
<path fill="none" stroke="#000000" d="M376.3709,-254.9879C384.9086,-258.7639 393.5526,-263.4132 400.8708,-269 421.5061,-284.7531 415.9538,-299.623 436.8708,-315 442.6768,-319.2682 449.2372,-322.9407 455.9706,-326.078"/>
<polygon fill="#000000" stroke="#000000" points="454.6346,-329.3132 465.2051,-330.0302 457.3889,-322.8778 454.6346,-329.3132"/>
</g>
<!-- Multiverbation&#45;&gt;MultiverbNewline -->
<g id="edge19" class="edge">
<title>Multiverbation&#45;&gt;MultiverbNewline</title>
<path fill="none" stroke="#000000" d="M554.4869,-300.5779C563.456,-304.3159 572.382,-309.0533 579.8581,-315 602.4321,-332.9559 593.1064,-351.2698 615.8581,-369 620.4595,-372.5858 625.576,-375.7195 630.9181,-378.4532"/>
<polygon fill="#000000" stroke="#000000" points="629.525,-381.6651 640.0706,-382.6855 632.4631,-375.3115 629.525,-381.6651"/>
</g>
<!-- MultiverbSpace -->
<g id="node21" class="node">
<title>MultiverbSpace</title>
<ellipse fill="#b0e2ff" stroke="#000000" cx="691.9014" cy="-288" rx="67.6881" ry="18"/>
<text text-anchor="middle" x="691.9014" y="-284.3" font-family="Times,serif" font-size="14.00" fill="#000000">MultiverbSpace</text>
</g>
<!-- Multiverbation&#45;&gt;MultiverbSpace -->
<g id="edge18" class="edge">
<title>Multiverbation&#45;&gt;MultiverbSpace</title>
<path fill="none" stroke="#000000" d="M572.2991,-288C585.7854,-288 600.1574,-288 614.09,-288"/>
<polygon fill="#000000" stroke="#000000" points="614.1385,-291.5001 624.1385,-288 614.1384,-284.5001 614.1385,-291.5001"/>
</g>
<!-- Univerbation&#45;&gt;UniverbNewline -->
<g id="edge27" class="edge">
<title>Univerbation&#45;&gt;UniverbNewline</title>
<path fill="none" stroke="#000000" d="M552.2446,-353.6641C561.9582,-357.5347 571.759,-362.5578 579.8581,-369 602.4321,-386.9559 593.1064,-405.2698 615.8581,-423 620.8618,-426.8993 626.4746,-430.264 632.3243,-433.1611"/>
<polygon fill="#000000" stroke="#000000" points="631.101,-436.4481 641.6584,-437.3385 633.9606,-430.0588 631.101,-436.4481"/>
</g>
<!-- UniverbSpace -->
<g id="node26" class="node">
<title>UniverbSpace</title>
<ellipse fill="#b0e2ff" stroke="#000000" cx="691.9014" cy="-342" rx="60.3893" ry="18"/>
<text text-anchor="middle" x="691.9014" y="-338.3" font-family="Times,serif" font-size="14.00" fill="#000000">UniverbSpace</text>
</g>
<!-- Univerbation&#45;&gt;UniverbSpace -->
<g id="edge26" class="edge">
<title>Univerbation&#45;&gt;UniverbSpace</title>
<path fill="none" stroke="#000000" d="M565.6817,-342C583.2533,-342 602.7961,-342 621.1531,-342"/>
<polygon fill="#000000" stroke="#000000" points="621.2094,-345.5001 631.2093,-342 621.2093,-338.5001 621.2094,-345.5001"/>
</g>
<!-- Whitespace -->
<g id="node27" class="node">
<title>Whitespace</title>
<ellipse fill="none" stroke="#000000" cx="51.9954" cy="-485" rx="51.9908" ry="18"/>
<text text-anchor="middle" x="51.9954" y="-481.3" font-family="Times,serif" font-size="14.00" fill="#000000">Whitespace</text>
</g>
<!-- LineBreak -->
<g id="node28" class="node">
<title>LineBreak</title>
<ellipse fill="none" stroke="#000000" cx="188.0865" cy="-485" rx="48.1917" ry="18"/>
<text text-anchor="middle" x="188.0865" y="-481.3" font-family="Times,serif" font-size="14.00" fill="#000000">LineBreak</text>
</g>
<!-- Whitespace&#45;&gt;LineBreak -->
<g id="edge28" class="edge">
<title>Whitespace&#45;&gt;LineBreak</title>
<path fill="none" stroke="#000000" d="M104.2226,-485C112.5358,-485 121.1826,-485 129.6283,-485"/>
<polygon fill="#000000" stroke="#000000" points="129.7946,-488.5001 139.7946,-485 129.7945,-481.5001 129.7946,-488.5001"/>
</g>
</g>
</svg>
